<svg xmlns="http://www.w3.org/2000/svg" viewBox="0 0 64 64" role="img" aria-label="Remote Mouse">
  <defs>
    <linearGradient id="bg" x1="0" y1="0" x2="1" y2="1">
      <stop offset="0" stop-color="#1b2a35"/>
      <stop offset="1" stop-color="#0c151d"/>
    </linearGradient>
    <linearGradient id="remote" x1="0" y1="0" x2="0" y2="1">
      <stop offset="0" stop-color="#78e6ff"/>
      <stop offset="0.48" stop-color="#47bbff"/>
      <stop offset="1" stop-color="#227bff"/>
    </linearGradient>
    <linearGradient id="shine" x1="0" y1="0" x2="1" y2="1">
      <stop offset="0" stop-color="#ffffff" stop-opacity="0.45"/>
      <stop offset="1" stop-color="#ffffff" stop-opacity="0"/>
    </linearGradient>
    <filter id="shadow" x="-20%" y="-20%" width="140%" height="140%">
      <feDropShadow dx="0" dy="2" stdDeviation="2.4" flood-color="#000000" flood-opacity="0.28"/>
    </filter>
  </defs>
  <rect x="2" y="2" width="60" height="60" rx="17" fill="url(#bg)"/>
  <g filter="url(#shadow)">
    <rect x="12" y="8" width="40" height="48" rx="15" fill="url(#remote)"/>
    <path d="M16 12c6-3 26-3 32 0v10c-4-5-10-7-16-7s-12 2-16 7z" fill="url(#shine)" opacity="0.55"/>
    <rect x="30.7" y="11" width="2.6" height="42" rx="1.3" fill="#dff7ff" opacity="0.96"/>
    <circle cx="24.5" cy="26" r="3.2" fill="#eefcff"/>
    <circle cx="39.5" cy="26" r="3.2" fill="#eefcff"/>
    <path d="M19 45c3.7-2.5 8-3.7 13-3.7S41.3 42.5 45 45" stroke="#eefcff" stroke-width="2.8" fill="none" stroke-linecap="round"/>
    <path d="M17.5 44.8c4.4-5 24.6-5 29 0" stroke="#7fdcff" stroke-opacity="0.36" stroke-width="1.2" fill="none" stroke-linecap="round"/>
  </g>
</svg>
